<svg width="523" height="409" viewBox="0 0 523 409" fill="none" xmlns="http://www.w3.org/2000/svg">
<path d="M438.89 408.999H84.11C37.76 408.999 0 371.239 0 324.889V84.11C0 37.76 37.76 0 84.11 0H438.89C485.24 0 523 37.76 523 84.11V324.889C523 371.239 485.24 408.999 438.89 408.999Z" fill="#434573"/>
<path d="M438.89 398.999H84.11C37.76 398.999 0 361.239 0 314.889V74.11C0 27.76 37.76 -10.0001 84.11 -10.0001H438.89C485.24 -10.0001 523 27.76 523 74.11V314.889C523 361.239 485.24 398.999 438.89 398.999Z" fill="url(#paint0_linear_4_2)"/>
<path d="M381.4 195.4C381.4 195.4 332.3 229.7 328.7 242.3C325.1 254.9 333.1 263.8 345.7 260.2C358.3 256.6 392.6 207.5 392.6 207.5L422.9 177.2L381.4 195.4Z" fill="#FFC107"/>
<path d="M345.701 260.2C345.701 260.2 358.301 256.6 364.601 258.4C370.901 260.2 370.001 268.3 360.101 271.9C350.201 275.5 333.101 263.8 333.101 263.8L345.701 260.2Z" fill="#FF9800"/>
<path d="M298.4 113.6L229.3 207.5L263.6 241.8L392.6 207.5L298.4 113.6Z" fill="#764BA2"/>
<path d="M229.3 207.5L195 241.8L263.6 241.8L229.3 207.5Z" fill="#667EEA"/>
<path d="M263.6 241.8L229.3 207.5L254.5 216.6L288.8 250.9L263.6 241.8Z" fill="#434573" fill-opacity="0.2"/>
<path d="M298.4 113.6L263.6 241.8L288.8 250.9L323.1 147.9L298.4 113.6Z" fill="#434573" fill-opacity="0.2"/>
<defs>
<linearGradient id="paint0_linear_4_2" x1="0" y1="-10.0001" x2="523" y2="398.999" gradientUnits="userSpaceOnUse">
<stop stop-color="#667EEA"/>
<stop offset="1" stop-color="#764BA2"/>
</linearGradient>
</defs>
</svg>