<?xml version="1.0" encoding="UTF-8"?>
<svg id="Capa_1" xmlns="http://www.w3.org/2000/svg" version="1.1" viewBox="0 0 765.6 300.96">
  <!-- Generator: Adobe Illustrator 29.6.1, SVG Export Plug-In . SVG Version: 2.1.1 Build 9)  -->
  <defs>
    <style>
      .st0 {
        fill: #2c73cb;
      }

      .st1 {
        fill: #db4a5d;
      }

      .st2 {
        fill: #2870c9;
      }

      .st3 {
        fill: #2971ca;
      }

      .st4 {
        fill: #2d74cb;
      }

      .st5 {
        display: none;
        fill: #fefefe;
      }

      .st6 {
        fill: #db495c;
      }

      .st7 {
        fill: #2770c9;
      }

      .st8 {
        fill: #2870ca;
      }

      .st9 {
        fill: #dc4c5f;
      }
    </style>
  </defs>
  <path class="st5" d="M766,0v301H0V0h766ZM423.95,95.45c-.56-.52-8.39,5.71-9.24,6.47-21.02,18.86-27.42,49.58-17.63,75.91,3.27,8.81,8.59,17,15.24,23.62.31-.15.02-.65-.07-.89-.74-1.88-1.86-3.82-2.63-5.76-12.02-30.32-8.75-66.87,10.07-93.67l4.27-5.68ZM381.91,95.99c-15.36,1.13-13.82,24.82,2.33,23.19,14.4-1.45,12.73-24.3-2.33-23.19ZM358.69,207.91c.45.1.57-.26.84-.48,1.24-1.03,2.65-2.71,3.71-3.96,25.19-29.79,19.61-76.01-12.63-98.15-6.21-4.26-13.55-7.72-20.95-9.15,2.03,1.49,4.26,2.66,6.31,4.12,23.48,16.69,33.08,48.48,30.87,76.33-.86,10.81-3.84,21.41-8.15,31.3ZM513.8,112h-16.78l-9.37,18h11.96l14.18-18ZM594.72,113.01c-3.3.48-6.51,3.85-7.03,7.12-1.6,10.07,11.47,14.57,16.4,6.56,4.28-6.96-1.34-14.84-9.37-13.68ZM283,192v-75.64c0-.2-.16-.36-.36-.36h-16.28c-.2,0-.36.16-.36.36v22.73c-2.48-.78-4.72-2.21-7.27-2.81-12.33-2.94-22.66,4.31-26.67,15.98-4.54,13.23-1.93,38.32,14.76,41.12,7.71,1.29,13.64-1.82,19.17-6.91.45,1.79.32,3.93,1.07,5.53h15.94ZM635,116h-17v76h17v-76ZM641,115.85v8.15h2v-4.56c.74.43.75,2.56,1.52,2.66.32.04,1.06.04,1.31-.13.42-.28.57-2.21,1.17-2.53v4.56h2v-8.15c-3.37-.74-2.43,1.8-4.11,3.6-.15-.5-1.23-3.44-1.41-3.56-.35-.23-1.93.08-2.48-.04ZM654.92,115.85c-1.41-.25-3.43.18-4.92,0v8.15h2.16c.33-.33-.79-4.04.97-2.53.57.49,1.33,2.15,1.91,2.41.72.33,1.85.03,2.64.12-.37-1.01-2.41-2.63-2.64-3.48-.02-.08.99-.48,1.26-1.14.52-1.29.14-3.26-1.38-3.53ZM145.17,119h-35.17v73h18v-59h11.75c.7,0,3.67,1.33,4.4,1.78,7.64,4.69,6.49,16.08-1.26,19.91-.83.41-3.31,1.31-4.13,1.31h-9.63l19.92,36h19.45l-16.59-26.77c14.66-6.86,18.97-25.3,8.29-37.94-3.49-4.12-9.64-7.76-15.03-8.29ZM467,119h-48v72h18v-29h25v-14h-24.64c-.2,0-.36-.16-.36-.36v-14.64h30v-14ZM223.96,168c.32-9.41.11-19.99-7.43-26.74-8.87-7.94-27.16-7.12-36.45-.22-13.07,9.71-14.5,34.1-2.42,45.07,9.62,8.74,27.5,8.87,39.3,5.22,2.06-.64,3.99-1.6,6.05-2.22v-14.15l-5.36,2.92c-6.34,2.78-12.99,4.05-19.88,2.76-6.67-1.25-10.94-5.72-10.99-12.63h37.19ZM523,192v-40.41c0-7-6.88-12.37-13.08-14.15-10.67-3.06-23.29-1.49-33.92,1.08v13.19c7.52-2.78,14.93-4.77,23.02-3.25,4.32.82,7.07,2.85,6.99,7.54-12.59,1.29-33.28,1.22-34.61,17.89-1.51,18.89,18.14,25.23,31.85,14.74.54-.41,1.99-1.96,2.43-2.15.52-.22.31.37.35.6.29,1.62.48,3.28.74,4.91h16.23ZM580,154.44v-14.51c-18.36-9.51-45.21-4.33-48.19,19.22-2.94,23.22,12.52,36.45,35.09,33.87,4.51-.52,9.09-2.11,13.11-4.17v-14.51c-9.47,8.61-28.31,10.39-30.68-5.66-1.06-7.17.49-16.79,8.07-19.7,8.09-3.11,16.15.73,22.62,5.46ZM313,137h-17v38.96c.81,12.2,8.5,19.37,20.79,17.43,5.25-.83,8.95-4.11,13.05-7.17.34,1.89.33,4.1,1.07,5.79h16.09v-55h-16.64c-.2,0-.36.16-.36.36v38.37c-3.61,3.2-12.83,5.28-15.59.28-.68-1.23-1.41-4.19-1.41-5.56v-33.45ZM605,137h-17v55h17v-55ZM359,208.15v.24c.16-.08.16-.16,0-.24ZM274.95,212.23c-.61.13-2.46-.2-2.84.04-.22.14-1.91,4.13-2.2,4.76.67-.05,1.49.19,2.06-.22.19-.14,2.57-3.39,2.75-3.73.15-.29.33-.45.23-.84ZM359,214h-2v18.61c.37.42,1.9-.45,2.25-.43s1.21.59,1.96.67c5.94.68,7.6-5.72,6.34-10.42-1.12-4.2-5.46-4.8-8.55-2.29v-6.14ZM439,214h-2v5.43c-6.19-2.68-10.03,1.78-9.69,7.31.33,5.23,4.57,8.33,8.99,4.68.31.18,0,1.08.12,1.2.09.09,2-.07,2.58,0v-18.61ZM390,214h-3v3h3v-3ZM247,215.01v17.99h2v-14.63l4.47,9.44c.25.31,1.62.24,1.9-.09l4.62-9.83v15.11h2v-17.99c-.87.14-2.8-.31-3.4.24l-3.87,9.35-4.33-9.35c-.43-.53-2.64-.1-3.4-.24ZM273.99,232.62c.1.1,2.49.16,2.61-.39-.53-4.17,2.12-12.75-3.95-13.49-.84-.1-5.43,0-5.83.48-.17.2.07,1.92-.02,2.37,1.95-.49,7.9-1.96,7.21,1.78-.05.27-3.91.55-4.58.73-2.48.66-4.06,2.37-3.8,5.02.4,4.26,5.52,4.99,8.25,2.31.31.18,0,1.08.12,1.2ZM289.59,222.06c.39-2.58-.45-2.99-2.83-3.29-3.5-.44-7.42,1.01-6.43,5.23.81,3.47,5.85,2.3,6.95,4.08s-.8,2.8-2.4,2.83c-1.7.03-3.14-1.09-4.65-1.65.12.58-.19,2.22.04,2.6.49.78,4.63,1.11,5.6,1,4.52-.52,6.01-6.2,1.55-7.79-1.42-.51-4.93-.46-4.79-2.63.13-1.97,3.13-1.83,4.51-1.41.91.28,1.52.96,2.44,1.03ZM313,218.95c-.82-.34-1.87.32-2.42.38-.41.04-1.25-.54-1.91-.62-10.22-1.3-8.62,17.59.28,13.72.7-.3,1.07-.86,2.05-1v5.88c-.3.52,2.1.52,2,0v-18.35ZM343.81,226c.25-4.51-1.34-7.88-6.37-7.44-6.47.56-7.38,11.12-2.03,13.56,2.02.92,5.69.85,7.61-.3.97-.58.42-1.7.54-2.69-1.38.35-2.46,1.28-3.96,1.44-3.17.34-5.2-1.32-5.16-4.56h9.36ZM381,232.61v-10.67c0-1.28-2.12-2.9-3.35-3.13-1.14-.21-5.43-.21-6.25.49-.49.42-.14,1.86-.24,2.52,1.85-.95,8.1-2.07,7.45,1.55-.04.23-3.87.55-4.57.73-2.67.67-4.1,2.2-3.85,5.05.39,4.34,5.47,4.81,8.29,2.26.3,0,.01,1.09.12,1.2.09.09,2-.07,2.4,0ZM404,232.61v-10.67c0-.33-.91-1.85-1.22-2.13-1.35-1.24-4.13-1.25-5.85-1.1-2.21.2-3.16.38-2.76,2.87,2.5-.31,7.27-2.3,7.45,1.78-3.31.62-8.34.44-8.43,5.05-.09,4.99,5.14,5.69,8.41,3-.39,1.9,1,1.03,2.4,1.2ZM454.18,226c1.33-10.59-12.58-9.82-11.75.6.36,4.51,3.72,6.54,8.03,6.12.43-.04,3.33-.85,3.45-.98.18-.2-.07-2.12.03-2.61-1.32.37-2.31,1.24-3.74,1.41-3.16.36-5.35-1.24-5.13-4.53h9.12ZM467,219.31v17.69h2v-4.87c2.46.65,3.88,1.18,6.06.13,5.04-2.42,4.82-14.95-2.96-13.51-1.05.2-1.73,1.09-2.46,1.38-.66.26-.22-1.06-.35-1.2-.09-.09-2.25-.13-2.29.36ZM483.69,226h9c.71,0,.17-3.04.01-3.61-.9-3.29-3.47-4.25-6.71-3.81-6.24.87-7.05,13.33.7,14.12,1.09.11,5.43-.24,6-1.19.32-.53.02-1.75.11-2.4-1.35.22-2.31,1.23-3.74,1.42-3.33.44-5.41-1.13-5.38-4.54ZM505.04,222.06c-.05-1.89.55-2.41-1.43-3-3.32-.99-8.34-.14-7.86,4.25.44,4.05,4.72,2.89,6.75,4.29.99.68.76,2.26-.24,2.82-2.31,1.3-4.5-.47-6.57-1.17.12.56-.19,2.26.03,2.6.09.14,2.83.92,3.23.97,2.9.34,6.39-.49,6.58-3.92.3-5.2-5.7-3.35-7.08-5.42-1.13-1.69.85-2.8,2.38-2.82s2.81.98,4.2,1.39ZM512.66,218.76c-5.91.94-6.27,11.85-.97,13.8,3.99,1.47,7.94-.89,8.44-5.13.61-5.16-1.67-9.59-7.47-8.67ZM320,219h-3v10.67c0,.28.84,1.73,1.12,2.05,1.84,2.06,5.34,1.35,7.26-.25.32.18,0,1.08.12,1.2.09.09,2.08-.07,2.5,0v-13.67c-.61.09-2.1-.3-2.32.39-.4,1.73.47,8.86-.15,9.92-.34.57-2.56,1.47-3.28,1.45-.89-.03-2.24-.85-2.24-1.81v-9.95ZM390,233.45v-14.09c0-.2-.16-.36-.36-.36h-4.64v2s3,0,3,0v11.97c-.52.08-.88,1.35-.94,1.5-.6,1.29-2.47,1.01-3.66,1.02-.35,2.45.57,2.41,2.7,2.1,2.27-.33,3.9-4.13,3.9-4.13ZM409,219.33v13.67h2v-9.83c0-.13,2.07-1.08,2.43-1.14.85-.14,1.71-.03,2.57-.06v-2.64c-1.8-.2-3.4.74-4.66,1.92-.07-.35.08-1.83,0-1.92-.09-.09-1.94.07-2.33,0Z"/>
  <path class="st7" d="M145.17,119c5.4.53,11.55,4.17,15.03,8.29,10.68,12.64,6.37,31.08-8.29,37.94l16.59,26.77h-19.45l-19.92-36h9.63c.83,0,3.3-.9,4.13-1.31,7.75-3.83,8.9-15.22,1.26-19.91-.73-.45-3.71-1.78-4.4-1.78h-11.75v59h-18v-73h35.17Z"/>
  <path class="st2" d="M283,192h-15.94c-.75-1.61-.61-3.74-1.07-5.53-5.54,5.09-11.47,8.2-19.17,6.91-16.7-2.8-19.31-27.89-14.76-41.12,4.01-11.67,14.34-18.92,26.67-15.98,2.55.61,4.79,2.04,7.27,2.81v-22.73c0-.2.16-.36.36-.36h16.28c.2,0,.36.16.36.36v75.64ZM266.01,149.67c-6.96-2.47-14.06-1.85-17.28,5.56-2.24,5.17-2.39,15.93.66,20.76,3.45,5.46,12.28,4.5,16.61.58v-26.91Z"/>
  <path class="st6" d="M523,192h-16.23c-.25-1.63-.44-3.29-.74-4.91-.04-.23.17-.82-.35-.6-.45.19-1.89,1.73-2.43,2.15-13.71,10.5-33.36,4.15-31.85-14.74,1.34-16.68,22.02-16.61,34.61-17.89.08-4.69-2.67-6.72-6.99-7.54-8.1-1.53-15.5.47-23.02,3.25v-13.19c10.62-2.56,23.25-4.14,33.92-1.08,6.2,1.78,13.08,7.15,13.08,14.15v40.41ZM506,166.19c-6.84.57-18.67.21-16.93,10.32.92,5.34,8.11,5.48,12.12,3.94.86-.33,4.8-2.5,4.8-3.35v-10.91Z"/>
  <path class="st7" d="M223.96,168h-37.19c.05,6.92,4.32,11.39,10.99,12.63,6.89,1.29,13.54.02,19.88-2.76l5.36-2.92v14.15c-2.06.62-3.99,1.58-6.05,2.22-11.79,3.65-29.67,3.52-39.3-5.22-12.08-10.97-10.64-35.35,2.42-45.07,9.29-6.9,27.58-7.73,36.45.22,7.54,6.75,7.76,17.33,7.43,26.74ZM207.53,157c-.12-6.71-3.25-11.41-10.45-11.04-6.49.33-9.7,4.94-10.19,11.04h20.63Z"/>
  <path class="st2" d="M313,137v33.45c0,1.37.73,4.32,1.41,5.56,2.76,5,11.97,2.92,15.59-.28v-38.37c0-.2.16-.36.36-.36h16.64v55h-16.09c-.74-1.69-.74-3.9-1.07-5.79-4.1,3.06-7.81,6.34-13.05,7.17-12.29,1.95-19.98-5.23-20.79-17.43v-38.96s17,0,17,0Z"/>
  <path class="st6" d="M467,119v14h-30v14.64c0,.2.16.36.36.36h24.64v14h-25v29h-18v-72h48Z"/>
  <path class="st6" d="M580,154.44c-6.47-4.73-14.53-8.57-22.62-5.46-7.57,2.91-9.12,12.53-8.07,19.7,2.37,16.05,21.21,14.27,30.68,5.66v14.51c-4.02,2.06-8.6,3.65-13.11,4.17-22.57,2.58-38.03-10.66-35.09-33.87,2.99-23.55,29.83-28.73,48.19-19.22v14.51Z"/>
  <rect class="st6" x="618" y="116" width="17" height="76"/>
  <path class="st8" d="M358.69,207.91c4.31-9.88,7.3-20.49,8.15-31.3,2.21-27.85-7.39-59.64-30.87-76.33-2.05-1.46-4.29-2.63-6.31-4.12,7.4,1.43,14.74,4.89,20.95,9.15,32.25,22.14,37.82,68.36,12.63,98.15-1.06,1.25-2.47,2.94-3.71,3.96-.27.22-.39.58-.84.48Z"/>
  <rect class="st6" x="588" y="137" width="17" height="55"/>
  <path class="st1" d="M423.95,95.45l-4.27,5.68c-18.81,26.79-22.08,63.35-10.07,93.67.77,1.94,1.89,3.88,2.63,5.76.09.23.39.73.07.89-6.65-6.61-11.97-14.81-15.24-23.62-9.79-26.33-3.39-57.05,17.63-75.91.85-.76,8.68-6.99,9.24-6.47Z"/>
  <path class="st6" d="M381.91,95.99c15.06-1.11,16.73,21.74,2.33,23.19-16.15,1.63-17.69-22.06-2.33-23.19Z"/>
  <path class="st1" d="M594.72,113.01c8.02-1.16,13.65,6.71,9.37,13.68-4.93,8.01-18,3.51-16.4-6.56.52-3.27,3.73-6.64,7.03-7.12Z"/>
  <polygon class="st6" points="513.8 112 499.61 130 487.65 130 497.02 112 513.8 112"/>
  <path class="st3" d="M247,215.01c.76.13,2.97-.29,3.4.24l4.33,9.35,3.87-9.35c.6-.54,2.53-.09,3.4-.24v17.99h-2v-15.11l-4.62,9.83c-.29.33-1.65.4-1.9.09l-4.47-9.44v14.63h-2v-17.99Z"/>
  <path class="st0" d="M439,214v18.61c-.58-.07-2.49.09-2.58,0-.12-.12.19-1.02-.12-1.2-4.42,3.65-8.67.55-8.99-4.68-.34-5.53,3.5-9.99,9.69-7.31v-5.43h2ZM432.76,220.92c-3.77.64-3.87,8.76-.61,9.61,1.08.28,3.9-.36,4.23-1.44.19-.65.17-6.02.06-6.92-.17-1.4-2.54-1.44-3.68-1.25Z"/>
  <path class="st4" d="M313,218.95v18.35c.1.52-2.3.52-2,0v-5.88c-.99.15-1.35.7-2.05,1-8.9,3.87-10.5-15.02-.28-13.72.66.08,1.5.66,1.91.62.55-.06,1.61-.72,2.42-.38ZM310.65,229.21c.19-.33.13-7.3-.07-7.63-.62-1.02-3.76-.84-4.76-.19-2.67,1.72-2.63,10.88,3.09,8.84.21-.07,1.69-.93,1.74-1.02Z"/>
  <path class="st0" d="M359,214v6.14c3.09-2.51,7.43-1.91,8.55,2.29,1.26,4.7-.4,11.09-6.34,10.42-.75-.09-1.62-.66-1.96-.67s-1.88.85-2.25.43v-18.61h2ZM358.95,230.19c3.09,1.08,5.97.74,6.43-3,.29-2.38.1-6.53-3.18-6.31-.65.04-2.88.85-3.16,1.42-.17.36-.35,7.59-.09,7.89Z"/>
  <path class="st3" d="M467,219.31c.05-.49,2.21-.45,2.29-.36.13.13-.31,1.46.35,1.2.73-.29,1.41-1.19,2.46-1.38,7.78-1.45,8,11.08,2.96,13.51-2.18,1.05-3.6.51-6.06-.13v4.87h-2v-17.69ZM472.11,220.92c-.56.09-2.61,1.04-2.78,1.54-.13.38-.15,6.58-.04,7.16.18.92,2.63,1.18,3.49,1.08,4.49-.5,4.54-10.61-.67-9.78Z"/>
  <path class="st0" d="M273.99,232.62c-.12-.12.19-1.02-.12-1.2-2.73,2.68-7.85,1.95-8.25-2.31-.25-2.65,1.32-4.36,3.8-5.02.67-.18,4.53-.46,4.58-.73.69-3.74-5.26-2.27-7.21-1.78.09-.46-.14-2.18.02-2.37.4-.47,4.99-.58,5.83-.48,6.07.74,3.42,9.32,3.95,13.49-.12.56-2.51.49-2.61.39ZM274,225.66c-2.38-.27-7.43.72-5.49,4.17,1.13,2.01,5.49.15,5.49-.69v-3.48Z"/>
  <path class="st4" d="M381,232.61c-.41-.07-2.31.09-2.4,0-.11-.11.18-1.21-.12-1.2-2.82,2.55-7.9,2.08-8.29-2.26-.26-2.85,1.18-4.38,3.85-5.05.7-.18,4.53-.5,4.57-.73.65-3.61-5.6-2.49-7.45-1.55.1-.66-.26-2.11.24-2.52.83-.7,5.11-.7,6.25-.49,1.23.23,3.35,1.85,3.35,3.13v10.67ZM379,225.66c-2.03-.08-6.14.16-6.02,2.99.17,3.71,6.02,1.41,6.02.49v-3.48Z"/>
  <path class="st0" d="M404,232.61c-1.41-.17-2.79.7-2.4-1.2-3.27,2.69-8.51,1.98-8.41-3,.09-4.6,5.12-4.42,8.43-5.05-.18-4.08-4.95-2.09-7.45-1.78-.39-2.5.55-2.68,2.76-2.87,1.72-.15,4.5-.14,5.85,1.1.31.29,1.22,1.81,1.22,2.13v10.67ZM402,225.66c-2.21-.23-7.15.52-5.82,3.78,1.08,2.64,5.82.46,5.82-.3v-3.48Z"/>
  <path class="st4" d="M483.69,226c-.03,3.41,2.05,4.97,5.38,4.54,1.43-.19,2.39-1.2,3.74-1.42-.1.65.21,1.87-.11,2.4-.57.95-4.91,1.3-6,1.19-7.75-.79-6.94-13.26-.7-14.12,3.24-.45,5.8.51,6.71,3.81.16.57.7,3.61-.01,3.61h-9ZM490.65,224c-.03-5.05-6.87-4.67-6.96,0h6.96Z"/>
  <path class="st4" d="M454.18,226h-9.12c-.22,3.29,1.97,4.89,5.13,4.53,1.44-.17,2.42-1.04,3.74-1.41-.09.49.15,2.41-.03,2.61-.12.13-3.02.94-3.45.98-4.31.43-7.67-1.61-8.03-6.12-.83-10.42,13.08-11.18,11.75-.6ZM451.78,224c.42-5.06-6.76-4.65-6.72,0h6.72Z"/>
  <path class="st4" d="M343.81,226h-9.36c-.04,3.24,1.99,4.89,5.16,4.56,1.5-.16,2.58-1.09,3.96-1.44-.12.99.43,2.11-.54,2.69-1.92,1.15-5.59,1.23-7.61.3-5.35-2.44-4.44-13,2.03-13.56,5.03-.44,6.62,2.93,6.37,7.44ZM341.41,224c.12-5.04-6.8-4.65-6.96,0h6.96Z"/>
  <path class="st0" d="M512.66,218.76c5.8-.92,8.08,3.51,7.47,8.67-.5,4.24-4.45,6.6-8.44,5.13-5.3-1.96-4.94-12.87.97-13.8ZM511.6,221.66c-1.87,1.94-1.64,8.52,1.83,9.17,5.06.95,5.41-7.78,2.64-9.6-1.27-.84-3.42-.66-4.47.43Z"/>
  <path class="st3" d="M320,219v9.95c0,.96,1.35,1.78,2.24,1.81.72.02,2.94-.88,3.28-1.45.63-1.06-.25-8.19.15-9.92.22-.69,1.71-.3,2.32-.39v13.67c-.42-.07-2.41.09-2.5,0-.12-.12.2-1.02-.12-1.2-1.92,1.59-5.42,2.31-7.26.25-.28-.31-1.12-1.76-1.12-2.05v-10.67h3Z"/>
  <path class="st0" d="M289.59,222.06c-.92-.07-1.53-.76-2.44-1.03-1.39-.42-4.39-.56-4.51,1.41-.14,2.16,3.37,2.12,4.79,2.63,4.46,1.59,2.97,7.27-1.55,7.79-.97.11-5.11-.21-5.6-1-.23-.38.08-2.02-.04-2.6,1.51.56,2.95,1.68,4.65,1.65,1.61-.03,3.5-1.07,2.4-2.83s-6.14-.61-6.95-4.08c-.99-4.21,2.92-5.67,6.43-5.23,2.38.3,3.22.7,2.83,3.29Z"/>
  <path class="st0" d="M505.04,222.06c-1.39-.41-2.69-1.41-4.2-1.39s-3.51,1.12-2.38,2.82c1.38,2.07,7.37.22,7.08,5.42-.2,3.44-3.69,4.26-6.58,3.92-.4-.05-3.14-.83-3.23-.97-.22-.34.09-2.04-.03-2.6,2.08.7,4.26,2.47,6.57,1.17,1-.56,1.23-2.14.24-2.82-2.03-1.41-6.31-.25-6.75-4.29-.47-4.39,4.55-5.25,7.86-4.25,1.98.59,1.39,1.11,1.43,3Z"/>
  <path class="st3" d="M390,233.45c-.38,2.22-1.63,3.8-3.9,4.13-2.13.31-3.04.36-2.7-2.1,1.19-.01,3.06.27,3.66-1.02.07-.15.94-1.5.94-1.5v-11.97h-3v-2h4.52s.36.28.48.31v14.15Z"/>
  <path class="st9" d="M641,115.85c.55.12,2.13-.19,2.48.04.18.12,1.26,3.06,1.41,3.56,1.68-1.79.74-4.34,4.11-3.6v8.15h-2v-4.56c-.59.32-.75,2.25-1.17,2.53-.25.17-.99.17-1.31.13-.77-.1-.78-2.23-1.52-2.66v4.56h-2v-8.15Z"/>
  <path class="st0" d="M409,219.33c.39.07,2.24-.09,2.33,0,.09.09-.07,1.57,0,1.92,1.26-1.18,2.87-2.12,4.66-1.92v2.64c-.85.03-1.72-.08-2.57.06-.37.06-2.43,1.01-2.43,1.14v9.83h-2v-13.67Z"/>
  <path class="st9" d="M654.92,115.85c1.52.27,1.9,2.24,1.38,3.53-.27.66-1.28,1.06-1.26,1.14.23.85,2.27,2.47,2.64,3.48-.79-.09-1.92.21-2.64-.12-.57-.26-1.33-1.92-1.91-2.41-1.76-1.51-.64,2.2-.97,2.54h-2.16v-8.15c1.48.18,3.51-.25,4.92,0ZM653,119.67c2.97.36,2.97-2.52,0-2.16v2.16Z"/>
  <path class="st0" d="M274.95,212.23c.09.39-.08.56-.23.84-.18.34-2.56,3.59-2.75,3.73-.57.41-1.38.18-2.06.22.28-.63,1.97-4.62,2.2-4.76.38-.24,2.23.09,2.84-.04Z"/>
  <rect class="st4" x="387" y="214" width="3" height="3"/>
  <path class="st8" d="M359,208.15c.16.08.16.16,0,.24v-.24Z"/>
</svg>